<svg width="20" height="20" viewBox="0 0 20 20" fill="none" xmlns="http://www.w3.org/2000/svg">
<path d="M18.8217 4.09833C18.1708 4.09833 17.6433 4.61083 17.6433 5.24417C17.6433 5.64333 17.8442 5.9925 18.1617 6.19833L14.1658 14.5375L15 3.4325C15.6042 3.38333 16.0792 2.89 16.0792 2.28917C16.0792 1.65667 15.5517 1.14333 14.9008 1.14333C14.25 1.14333 13.7225 1.65667 13.7225 2.28917C13.7225 2.7875 14.0492 3.2025 14.5058 3.36083L11.7642 14.2033L10.4083 2.2425C10.9108 2.11167 11.2767 1.675 11.2767 1.14583C11.2758 0.5125 10.7492 0 10.0983 0C9.4475 0 8.92 0.5125 8.92 1.14583C8.92 1.7175 9.35417 2.17917 9.9175 2.265L8.82417 13.9175L5.64667 3.395C6.02167 3.20333 6.2775 2.82583 6.2775 2.385C6.2775 1.7525 5.75 1.23917 5.09917 1.23917C4.44833 1.23917 3.92083 1.7525 3.92083 2.385C3.92083 3.0175 4.44833 3.53083 5.09917 3.53083L5.15083 3.52833L6.52 14.5375L1.905 6.5275C2.04478 6.42227 2.15829 6.2861 2.23665 6.12967C2.31501 5.97324 2.35609 5.80079 2.35667 5.62583C2.35667 4.99333 1.82917 4.48 1.17833 4.48C0.5275 4.48 0 4.9925 0 5.62583C0 6.25833 0.5275 6.77167 1.17833 6.77167C1.26417 6.77167 1.34833 6.7625 1.42833 6.74583L5.295 18.0167C6.1775 20.6375 14.0183 20.6858 15.195 18.0167L18.6867 6.37667C18.735 6.3825 18.7717 6.39083 18.8217 6.39083C19.4725 6.39 20 5.87667 20 5.24417C20 4.61167 19.4725 4.09833 18.8217 4.09833ZM10.1475 19.2217C8.14917 19.2217 6.52917 18.6358 6.52917 17.9142C6.52917 17.1917 8.14917 16.8525 10.1475 16.8525C12.1458 16.8525 13.5533 17.1917 13.5533 17.9142C13.5533 18.6358 12.145 19.2217 10.1475 19.2217Z" fill="#EFBE8A"/>
</svg>
